<svg xmlns="http://www.w3.org/2000/svg" version="1.1" xmlns:xlink="http://www.w3.org/1999/xlink" xmlns:svgjs="http://svgjs.dev/svgjs" width="1440" height="560" preserveAspectRatio="none" viewBox="0 0 1440 560"><g mask="url(&quot;#SvgjsMask1269&quot;)" fill="none"><rect width="1440" height="560" x="0" y="0" fill="rgba(254, 254, 255, 1)"></rect><path d="M1306.59 504.69000000000005 L1435.46 536.9300000000001L1286.3518474559992 605.4831525440009z" stroke="#e73635" stroke-width="1" stroke-dasharray="4, 4"></path><path d="M1004.81 352.96a5.6 5.6 0 1 0-5.86-9.54 5.6 5.6 0 1 0 5.86 9.54zM996.43 339.33a5.6 5.6 0 1 0-5.86-9.54 5.6 5.6 0 1 0 5.86 9.54zM988.05 325.7a5.6 5.6 0 1 0-5.86-9.54 5.6 5.6 0 1 0 5.86 9.54zM979.68 312.07a5.6 5.6 0 1 0-5.87-9.54 5.6 5.6 0 1 0 5.87 9.54zM1035.2 371.84a5.6 5.6 0 1 0-5.86-9.54 5.6 5.6 0 1 0 5.86 9.54zM1026.82 358.21a5.6 5.6 0 1 0-5.86-9.54 5.6 5.6 0 1 0 5.86 9.54zM1018.44 344.58a5.6 5.6 0 1 0-5.86-9.54 5.6 5.6 0 1 0 5.86 9.54zM1010.06 330.95a5.6 5.6 0 1 0-5.86-9.54 5.6 5.6 0 1 0 5.86 9.54zM1065.59 390.73a5.6 5.6 0 1 0-5.87-9.55 5.6 5.6 0 1 0 5.87 9.55zM1057.21 377.1a5.6 5.6 0 1 0-5.86-9.55 5.6 5.6 0 1 0 5.86 9.55zM1048.83 363.46a5.6 5.6 0 1 0-5.86-9.54 5.6 5.6 0 1 0 5.86 9.54zM1040.45 349.83a5.6 5.6 0 1 0-5.86-9.54 5.6 5.6 0 1 0 5.86 9.54z" stroke="#e73635" stroke-width="2.46" stroke-dasharray="4, 4"></path><path d="M884.45 389.66a5.6 5.6 0 1 0 10.52 3.83 5.6 5.6 0 1 0-10.52-3.83zM899.48 395.14a5.6 5.6 0 1 0 10.53 3.83 5.6 5.6 0 1 0-10.53-3.83zM914.52 400.61a5.6 5.6 0 1 0 10.52 3.84 5.6 5.6 0 1 0-10.52-3.84zM929.55 406.09a5.6 5.6 0 1 0 10.52 3.84 5.6 5.6 0 1 0-10.52-3.84zM848.9 393.74a5.6 5.6 0 1 0 10.53 3.83 5.6 5.6 0 1 0-10.53-3.83zM863.94 399.21a5.6 5.6 0 1 0 10.52 3.84 5.6 5.6 0 1 0-10.52-3.84zM878.97 404.69a5.6 5.6 0 1 0 10.52 3.84 5.6 5.6 0 1 0-10.52-3.84zM894 410.17a5.6 5.6 0 1 0 10.53 3.83 5.6 5.6 0 1 0-10.53-3.83zM813.36 397.82a5.6 5.6 0 1 0 10.52 3.83 5.6 5.6 0 1 0-10.52-3.83zM828.39 403.29a5.6 5.6 0 1 0 10.53 3.84 5.6 5.6 0 1 0-10.53-3.84zM843.43 408.77a5.6 5.6 0 1 0 10.52 3.83 5.6 5.6 0 1 0-10.52-3.83zM858.46 414.25a5.6 5.6 0 1 0 10.52 3.83 5.6 5.6 0 1 0-10.52-3.83z" stroke="#d3b714" stroke-width="1.91" stroke-dasharray="3, 3"></path><rect width="98.39999999999999" height="98.39999999999999" clip-path="url(&quot;#SvgjsClipPath1270&quot;)" x="772.36" y="340.31" fill="url(&quot;#SvgjsPattern1271&quot;)" transform="rotate(49.88, 821.56, 389.51)"></rect><rect width="360" height="360" clip-path="url(&quot;#SvgjsClipPath1272&quot;)" x="920.21" y="-21.27" fill="url(&quot;#SvgjsPattern1273&quot;)" transform="rotate(61.03, 1100.21, 158.73)"></rect><path d="M292.19 203.11 L407.94 268.27L281.2832075825643 304.4717924174357z" fill="rgba(255, 96, 144, 1)"></path><rect width="204.36" height="204.36" clip-path="url(&quot;#SvgjsClipPath1274&quot;)" x="1104.16" y="85.39" fill="url(&quot;#SvgjsPattern1275&quot;)" transform="rotate(332.74, 1206.34, 187.57)"></rect><path d="M1064.87 340.54a5.6 5.6 0 1 0 11.2-0.37 5.6 5.6 0 1 0-11.2 0.37zM1080.86 340.01a5.6 5.6 0 1 0 11.2-0.38 5.6 5.6 0 1 0-11.2 0.38zM1096.85 339.47a5.6 5.6 0 1 0 11.2-0.37 5.6 5.6 0 1 0-11.2 0.37zM1112.85 338.94a5.6 5.6 0 1 0 11.19-0.37 5.6 5.6 0 1 0-11.19 0.37z" fill="#037b0b"></path><rect width="223.8" height="223.8" clip-path="url(&quot;#SvgjsClipPath1276&quot;)" x="57.51" y="325.62" fill="url(&quot;#SvgjsPattern1277&quot;)" transform="rotate(289.06, 169.41, 437.52)"></rect><rect width="60" height="60" clip-path="url(&quot;#SvgjsClipPath1278&quot;)" x="184.64" y="332.92" fill="url(&quot;#SvgjsPattern1279&quot;)" transform="rotate(355.76, 214.64, 362.92)"></rect><rect width="149.24" height="149.24" clip-path="url(&quot;#SvgjsClipPath1280&quot;)" x="529.04" y="321.36" fill="url(&quot;#SvgjsPattern1281&quot;)" transform="rotate(16.34, 603.66, 395.98)"></rect><rect width="123.36" height="123.36" clip-path="url(&quot;#SvgjsClipPath1282&quot;)" x="550.41" y="379.93" fill="url(&quot;#SvgjsPattern1283&quot;)" transform="rotate(29.09, 612.09, 441.61)"></rect></g><defs><mask id="SvgjsMask1269"><rect width="1440" height="560" fill="#ffffff"></rect></mask><pattern x="0" y="0" width="8.2" height="8.2" patternUnits="userSpaceOnUse" id="SvgjsPattern1271"><path d="M0 8.2L4.1 0L8.2 8.2" stroke="#d3b714" fill="none"></path></pattern><clipPath id="SvgjsClipPath1270"><circle r="24.599999999999998" cx="821.56" cy="389.51"></circle></clipPath><pattern x="0" y="0" width="6" height="6" patternUnits="userSpaceOnUse" id="SvgjsPattern1273"><path d="M3 1L3 5M1 3L5 3" stroke="#d3b714" fill="none" stroke-width="1"></path></pattern><clipPath id="SvgjsClipPath1272"><circle r="90" cx="1100.21" cy="158.73"></circle></clipPath><pattern x="0" y="0" width="7.86" height="7.86" patternUnits="userSpaceOnUse" id="SvgjsPattern1275"><path d="M0 7.86L3.93 0L7.86 7.86" stroke="#e73635" fill="none"></path></pattern><clipPath id="SvgjsClipPath1274"><circle r="51.09" cx="1206.34" cy="187.57"></circle></clipPath><pattern x="0" y="0" width="223.8" height="7.46" patternUnits="userSpaceOnUse" id="SvgjsPattern1277"><rect width="223.8" height="3.73" x="0" y="0" fill="#d3b714"></rect><rect width="223.8" height="3.73" x="0" y="3.73" fill="rgba(0, 0, 0, 0)"></rect></pattern><clipPath id="SvgjsClipPath1276"><circle r="55.95" cx="169.41" cy="437.52"></circle></clipPath><pattern x="0" y="0" width="60" height="6" patternUnits="userSpaceOnUse" id="SvgjsPattern1279"><rect width="60" height="3" x="0" y="0" fill="#d3b714"></rect><rect width="60" height="3" x="0" y="3" fill="rgba(0, 0, 0, 0)"></rect></pattern><clipPath id="SvgjsClipPath1278"><circle r="15" cx="214.64" cy="362.92"></circle></clipPath><pattern x="0" y="0" width="10.66" height="10.66" patternUnits="userSpaceOnUse" id="SvgjsPattern1281"><path d="M5.33 1L5.33 9.66M1 5.33L9.66 5.33" stroke="#d3b714" fill="none" stroke-width="2.52"></path></pattern><clipPath id="SvgjsClipPath1280"><circle r="37.31" cx="603.66" cy="395.98"></circle></clipPath><pattern x="0" y="0" width="123.36" height="10.28" patternUnits="userSpaceOnUse" id="SvgjsPattern1283"><rect width="123.36" height="5.14" x="0" y="0" fill="#037b0b"></rect><rect width="123.36" height="5.14" x="0" y="5.14" fill="rgba(0, 0, 0, 0)"></rect></pattern><clipPath id="SvgjsClipPath1282"><circle r="30.84" cx="612.09" cy="441.61"></circle></clipPath></defs></svg>