<svg xmlns="http://www.w3.org/2000/svg" version="1.1" xmlns:xlink="http://www.w3.org/1999/xlink" xmlns:svgjs="http://svgjs.dev/svgjs" width="1440" height="560" preserveAspectRatio="none" viewBox="0 0 1440 560"><g mask="url(&quot;#SvgjsMask1163&quot;)" fill="none"><rect width="1440" height="560" x="0" y="0" fill="rgba(255, 255, 255, 1)"></rect><path d="M -866.9771265303709,262 C -770.98,298.6 -578.98,474.8 -386.977126530371,445 C -194.98,415.2 -98.98,114.4 93.02287346962902,113 C 285.02,111.6 381.02,414 573.0228734696291,438 C 765.02,462 879.63,218.4 1053.022873469629,233 C 1226.42,247.6 1362.6,455.4 1440,511" stroke="rgba(91, 0, 49, 1)" stroke-width="2"></path><path d="M -566.5218051868593,149 C -470.52,196.8 -278.52,393.2 -86.52180518685931,388 C 105.48,382.8 201.48,134 393.4781948131407,123 C 585.48,112 681.48,311 873.4781948131407,333 C 1065.48,355 1240.17,206.2 1353.4781948131406,233 C 1466.78,259.8 1422.7,420.2 1440,467" stroke="rgba(91, 0, 49, 1)" stroke-width="2"></path><path d="M -97.57673671670818,91 C -1.58,152.2 190.42,402 382.4232632832918,397 C 574.42,392 670.42,46 862.4232632832918,66 C 1054.42,86 1150.42,482.4 1342.4232632832918,497 C 1534.42,511.6 1802.91,148.6 1822.4232632832918,139 C 1841.94,129.4 1516.48,387 1440,449" stroke="rgba(91, 0, 49, 1)" stroke-width="2"></path></g><defs><mask id="SvgjsMask1163"><rect width="1440" height="560" fill="#ffffff"></rect></mask></defs></svg>