<svg xmlns="http://www.w3.org/2000/svg" version="1.1" xmlns:xlink="http://www.w3.org/1999/xlink" xmlns:svgjs="http://svgjs.dev/svgjs" width="1440" height="560" preserveAspectRatio="none" viewBox="0 0 1440 560"><g mask="url(&quot;#SvgjsMask1007&quot;)" fill="none"><path d="M314.33 446.24L327.58 446.24L327.58 493.48L314.33 493.48z" fill="rgba(108, 6, 56, 1)"></path><path d="M753.91 410.25a17.51 17.51 0 1 0 24.58 24.94z" fill="rgba(108, 6, 56, 1)"></path><path d="M757.27 127.34 a0.11 0.11 0 1 0 0.22 0 a0.11 0.11 0 1 0 -0.22 0z" stroke="rgba(232, 6, 138, 1)"></path><path d="M611.11 451.53 a7.05 7.05 0 1 0 14.1 0 a7.05 7.05 0 1 0 -14.1 0z" fill="rgba(232, 6, 138, 1)"></path><path d="M453.91 362.01a35.48 35.48 0 1 0-68.83 17.24z" fill="rgba(108, 6, 56, 1)"></path><path d="M55.61 143.17a33.12 33.12 0 1 0-49.18 44.37z" fill="rgba(232, 6, 138, 1)"></path><path d="M347.14 306.22a29.27 29.27 0 1 0 51.58 27.7z" stroke="rgba(108, 6, 56, 1)"></path><path d="M543.4 250.19L556.21 250.19L556.21 263L543.4 263z" fill="#d3b714"></path><path d="M667.42 116.52a9.83 9.83 0 1 0 3.2 19.4z" stroke="rgba(232, 6, 138, 1)"></path><path d="M132.72 368.61L175.35 368.61L175.35 403.11L132.72 403.11z" fill="rgba(108, 6, 56, 1)"></path><path d="M150.48 33.17L154.19 33.17L154.19 43.93L150.48 43.93z" fill="rgba(108, 6, 56, 1)"></path><path d="M830.35 536.01L837.1 536.01L837.1 542.76L830.35 542.76z" fill="rgba(232, 6, 138, 1)"></path><path d="M713.24 94.73 a23.26 23.26 0 1 0 46.52 0 a23.26 23.26 0 1 0 -46.52 0z" fill="rgba(108, 6, 56, 1)"></path><path d="M1099.4 144.92L1139 144.92L1139 184.52L1099.4 184.52z" fill="#d3b714"></path><path d="M1002.28 94.9L1020.94 94.9L1020.94 113.56L1002.28 113.56z" fill="#d3b714"></path><path d="M122.01 340.51L140.45 340.51L140.45 358.95L122.01 358.95z" fill="rgba(232, 6, 138, 1)"></path><path d="M967.28 382.37L971.69 382.37L971.69 396.25L967.28 396.25z" stroke="rgba(232, 6, 138, 1)"></path><path d="M1267.41 534.25L1305.94 534.25L1305.94 572.78L1267.41 572.78z" fill="#d3b714"></path><path d="M1028.99 117.34 a43.22 43.22 0 1 0 86.44 0 a43.22 43.22 0 1 0 -86.44 0z" stroke="rgba(232, 6, 138, 1)"></path><path d="M901.81 121.06a42.84 42.84 0 1 0-85-10.73z" stroke="rgba(108, 6, 56, 1)"></path><path d="M476.84 243.11L482.61 243.11L482.61 282.11L476.84 282.11z" stroke="rgba(108, 6, 56, 1)"></path><path d="M1237.49 403.44a31.08 31.08 0 1 0 38.89 48.49z" stroke="rgba(232, 6, 138, 1)"></path><path d="M1377.97 476.44 a24.94 24.94 0 1 0 49.88 0 a24.94 24.94 0 1 0 -49.88 0z" fill="#d3b714"></path><path d="M133.82 178.44L139.71 178.44L139.71 179.19L133.82 179.19z" fill="#d3b714"></path><path d="M1114.11 403.26L1124.33 403.26L1124.33 417.95L1114.11 417.95z" fill="rgba(108, 6, 56, 1)"></path><path d="M385.52 232.82L410.43 232.82L410.43 236.4L385.52 236.4z" stroke="rgba(108, 6, 56, 1)"></path><path d="M3.68 36.79L8.5 36.79L8.5 53.13L3.68 53.13z" fill="rgba(232, 6, 138, 1)"></path><path d="M481.44 335.61L501.77 335.61L501.77 355.94L481.44 355.94z" fill="#d3b714"></path><path d="M907.39 229.64L914.72 229.64L914.72 236.97L907.39 236.97z" stroke="#d3b714"></path><path d="M913.2 287.97 a43.5 43.5 0 1 0 87 0 a43.5 43.5 0 1 0 -87 0z" stroke="rgba(108, 6, 56, 1)"></path><path d="M601.31 255.64L616.42 255.64L616.42 307.62L601.31 307.62z" stroke="rgba(232, 6, 138, 1)"></path><path d="M899.6 525.07 a19.4 19.4 0 1 0 38.8 0 a19.4 19.4 0 1 0 -38.8 0z" stroke="#d3b714"></path><path d="M296.71 246.89 a24.6 24.6 0 1 0 49.2 0 a24.6 24.6 0 1 0 -49.2 0z" fill="#d3b714"></path></g><defs><mask id="SvgjsMask1007"><rect width="1440" height="560" fill="#ffffff"></rect></mask></defs></svg>